<?xml version="1.0" encoding="UTF-8"?>
<svg version="1.1" viewBox="0 0 16 16" xmlns="http://www.w3.org/2000/svg">
<path d="m14.797 8.2017c0-0.50059-0.04492-0.98189-0.12833-1.444h-6.6476v2.734h3.7986c-0.16683 0.87924-0.66732 1.6237-1.4181 2.1243v1.7777h2.2907c1.3347-1.2322 2.1046-3.042 2.1046-5.192z" fill="#4285f4" stroke-width=".64171"/>
<path d="m8.0215 15.101c1.9057 0 3.5034-0.62895 4.6712-1.7071l-2.2907-1.7777c-0.62882 0.42358-1.4309 0.68028-2.3805 0.68028-1.8351 0-3.3943-1.2387-3.9526-2.9073h-2.3485v1.8226c1.1614 2.304 3.5419 3.8892 6.3011 3.8892z" fill="#34a853" stroke-width=".64171"/>
<path d="m4.0689 9.3825c-0.14117-0.42358-0.22458-0.87282-0.22458-1.3413 0-0.4685 0.083416-0.91772 0.22458-1.3413v-1.8226h-2.3485c-0.48124 0.94981-0.75715 2.0216-0.75715 3.1639 0 1.1424 0.27591 2.2141 0.75715 3.1639l1.8287-1.4248z" fill="#fbbc05" stroke-width=".64171"/>
<path d="m8.0215 3.7927c1.0394 0 1.9635 0.3594 2.7014 1.0525l2.0212-2.0216c-1.2256-1.1424-2.8169-1.842-4.7226-1.842-2.7591 0-5.1396 1.5852-6.3011 3.8956l2.3485 1.8226c0.55824-1.6686 2.1175-2.9073 3.9526-2.9073z" fill="#ea4335" stroke-width=".64171"/>
<path d="m0.96334 0.98166h14.117v14.119h-14.117z" fill="none" stroke-width=".64171"/>
</svg>
